<svg width="21" height="13" viewBox="0 0 21 13" fill="none" xmlns="http://www.w3.org/2000/svg">
<path d="M20.8579 7.22369C20.8241 6.73655 20.7558 6.20517 20.6553 5.64403C20.5538 5.07869 20.4232 4.54425 20.2668 4.05578C20.1052 3.55091 19.8855 3.05233 19.6139 2.57454C19.332 2.07864 19.0009 1.64681 18.6293 1.29148C18.2408 0.919735 17.7651 0.620855 17.215 0.402846C16.6668 0.185981 16.0593 0.0761185 15.4095 0.0761185C15.1543 0.0761185 14.9075 0.180832 14.4309 0.491156C14.1375 0.682462 13.7944 0.903713 13.4114 1.14843C13.0839 1.35709 12.6402 1.55259 12.0923 1.72959C11.5576 1.90259 11.0148 1.99033 10.479 1.99033C9.94324 1.99033 9.4006 1.90259 8.8654 1.72959C8.31799 1.55278 7.87434 1.35728 7.54723 1.14862C7.16786 0.906193 6.82454 0.684942 6.5268 0.490965C6.05073 0.180641 5.80373 0.0759277 5.54852 0.0759277C4.8985 0.0759277 4.2912 0.185981 3.74322 0.403037C3.19352 0.620664 2.71764 0.919544 2.32873 1.29167C1.95737 1.64719 1.62606 2.07883 1.34454 2.57454C1.07312 3.05233 0.853394 3.55072 0.69165 4.05598C0.535439 4.54445 0.404785 5.07869 0.303314 5.64403C0.202797 6.2044 0.134514 6.73598 0.100754 7.22426C0.0675659 7.70262 0.0507812 8.1991 0.0507812 8.70054C0.0507812 10.0055 0.46563 11.062 1.28369 11.8412C2.09164 12.61 3.16071 13.0001 4.46076 13.0001H16.4984C17.7985 13.0001 18.8672 12.6102 19.6753 11.8412C20.4936 11.0626 20.9084 10.0059 20.9084 8.70035C20.9082 8.19662 20.8912 7.69976 20.8579 7.22369Z" fill=""/>
</svg>
