<svg width="15" height="17" viewBox="0 0 15 17" fill="none" xmlns="http://www.w3.org/2000/svg">
<path d="M11.6666 2.25002H14.7916V0.166687H0.208252V12.6667H3.33325V14.75H0.208252V16.8334H14.7916V4.33335H11.6666V2.25002ZM10.6249 6.41669H6.97909C6.84095 6.41669 6.70848 6.47156 6.6108 6.56924C6.51313 6.66691 6.45825 6.79939 6.45825 6.93752C6.45825 7.07566 6.51313 7.20813 6.6108 7.30581C6.70848 7.40348 6.84095 7.45835 6.97909 7.45835H8.02075C8.66656 7.45771 9.28957 7.69704 9.76884 8.1299C10.2481 8.56276 10.5494 9.15827 10.6144 9.80081C10.6793 10.4433 10.5031 11.0871 10.1201 11.607C9.73704 12.127 9.17448 12.4861 8.54159 12.6146V13.7084H6.45825V12.6667H4.37492V10.5834H8.02075C8.15889 10.5834 8.29136 10.5285 8.38904 10.4308C8.48671 10.3331 8.54159 10.2007 8.54159 10.0625C8.54159 9.92439 8.48671 9.79191 8.38904 9.69424C8.29136 9.59656 8.15889 9.54169 8.02075 9.54169H6.97909C6.33328 9.54234 5.71027 9.303 5.231 8.87014C4.75173 8.43728 4.45039 7.84178 4.38549 7.19924C4.32058 6.5567 4.49674 5.91297 4.87977 5.393C5.2628 4.87304 5.82536 4.51395 6.45825 4.38544V3.29169H8.54159V4.33335H10.6249V6.41669Z" fill=""/>
</svg>
